# Blender v2.77 (sub 0) OBJ File: 'tree2.blend'
# www.blender.org
mtllib tree2.mtl
o Cylinder.001
v 1.761129 1.746193 2.681414
v 1.761129 3.214888 2.706750
v 1.947096 1.746193 2.758444
v 1.929180 3.214888 2.776360
v 2.024126 1.746193 2.944411
v 1.998789 3.214888 2.944411
v 1.947096 1.746193 3.130378
v 1.929180 3.214888 3.112462
v 1.761129 1.746193 3.207408
v 1.761129 3.214888 3.182071
v 1.575162 1.746193 3.130378
v 1.593078 3.214888 3.112462
v 1.498132 1.746193 2.944411
v 1.523468 3.214888 2.944411
v 1.575162 1.746193 2.758444
v 1.593078 3.214888 2.776360
v 1.761129 1.746193 2.681414
v 1.761129 3.214888 2.706750
v 1.947096 1.746193 2.758444
v 1.929180 3.214888 2.776360
v 2.024126 1.746193 2.944411
v 1.998789 3.214888 2.944411
v 1.947096 1.746193 3.130378
v 1.929180 3.214888 3.112462
v 1.761129 1.746193 3.207408
v 1.761129 3.214888 3.182071
v 1.575162 1.746193 3.130378
v 1.593078 3.214888 3.112462
v 1.498132 1.746193 2.944411
v 1.523468 3.214888 2.944411
v 1.575162 1.746193 2.758444
v 1.593078 3.214888 2.776360
v 1.761129 3.214888 2.706750
v 1.929180 3.214888 2.776360
v 1.998789 3.214888 2.944411
v 1.929180 3.214888 3.112462
v 1.761129 3.214888 3.182071
v 1.593078 3.214888 3.112462
v 1.523468 3.214888 2.944411
v 1.593078 3.214888 2.776360
v 1.761129 4.575187 2.681414
v 1.947096 4.575187 2.758444
v 2.024126 4.575187 2.944411
v 1.947096 4.575187 3.130378
v 1.761129 4.575187 3.207408
v 1.575162 4.575187 3.130378
v 1.498132 4.575187 2.944411
v 1.575162 4.575187 2.758444
v 1.947096 4.534989 2.758444
v 1.761129 4.575187 2.681414
v 1.947096 4.575187 3.130378
v 2.024126 4.575187 2.944411
v 1.575162 4.575187 3.130378
v 1.761129 4.623042 3.207408
v 1.575162 4.575187 2.758444
v 1.464486 4.532536 2.969451
v 2.285213 6.754561 2.872237
v 2.215940 6.774820 2.842341
v 2.285213 6.754561 3.016586
v 2.313907 6.746170 2.944411
v 2.146668 6.795080 3.016586
v 2.215940 6.774820 3.046481
v 2.146668 6.795080 2.872237
v 2.117974 6.803472 2.944411
v 2.014041 5.662737 3.073482
v 2.065710 5.650805 2.944411
v 1.764564 5.720347 2.815340
v 1.712896 5.732279 2.944411
v 1.911660 5.749056 3.087728
v 1.889303 5.691543 2.761878
v 2.014041 5.662737 2.815340
v 1.764564 5.720347 3.073482
v 1.761129 1.746193 2.681414
v 1.947096 1.746193 2.758444
v 2.024126 1.746193 2.944411
v 1.947096 1.746193 3.130378
v 1.761129 1.746193 3.207408
v 1.575162 1.746193 3.130378
v 1.498132 1.746193 2.944411
v 1.575162 1.746193 2.758444
v 1.761129 1.552175 2.612293
v 1.995971 1.552175 2.709568
v 2.093246 1.552175 2.944411
v 1.995971 1.552175 3.179253
v 1.761129 1.552175 3.276528
v 1.526286 1.552175 3.179253
v 1.429011 1.552175 2.944411
v 1.526286 1.552175 2.709568
v 2.060246 4.988545 2.861612
v 1.529752 5.037745 3.003252
v 1.980555 5.118737 3.101942
v 1.575137 4.949929 2.872849
v 1.825189 5.133133 3.167193
v 1.840526 5.008905 2.638830
v 1.993324 5.053853 2.713781
v 1.575137 4.949929 3.187911
v 0.016483 5.420103 2.969891
v 0.016483 5.420103 2.888971
v -0.007596 5.410824 2.934879
v 0.035367 5.559532 2.923529
v 0.037078 5.544625 2.895158
v 0.037078 5.544625 2.963704
v 0.819698 5.150320 2.928223
v 0.846048 5.094280 2.842289
v 0.783667 4.717111 2.823550
v 0.710732 4.689003 2.962602
v 0.783667 4.717111 3.068652
v 0.846048 5.094280 3.049912
v 1.761129 4.082426 2.681414
v 2.024126 4.082426 2.944411
v 1.761129 4.022607 3.207408
v 1.476674 4.055224 2.960380
v 1.947096 4.082426 2.758444
v 1.947096 4.082426 3.130378
v 1.575162 4.082426 3.130378
v 1.575162 4.082426 2.758444
v 1.947096 4.575187 3.130378
v 1.575162 4.575187 3.130378
v 1.761129 4.623042 3.207408
v 1.761129 4.022607 3.207408
v 1.947096 4.082426 3.130378
v 1.575162 4.082426 3.130378
v 1.947096 4.575187 3.130378
v 1.575162 4.575187 3.130378
v 1.761129 4.623042 3.207408
v 1.761129 4.022607 3.207408
v 1.947096 4.082426 3.130378
v 1.575162 4.082426 3.130378
v 1.973748 4.460283 3.165735
v 1.601814 4.460283 3.165735
v 1.787781 4.508139 3.242765
v 1.761129 4.022607 3.207408
v 1.947096 4.082426 3.130378
v 1.575162 4.082426 3.130378
v 1.799154 4.802646 4.502446
v 1.723104 4.802646 4.502446
v 1.761129 4.819908 4.509217
v 1.761129 4.721514 4.582644
v 1.799155 4.721896 4.562706
v 1.723104 4.721896 4.562706
v 1.761129 4.214865 3.863663
v 1.885395 4.249894 3.810444
v 1.885395 4.570820 3.785311
v 1.761129 4.605916 3.833039
v 1.636863 4.249894 3.810444
v 1.636863 4.570820 3.785311
v 2.919071 5.149558 1.823002
v 2.880171 5.145025 1.807683
v 2.932047 5.154296 1.862721
v 2.891093 5.253239 1.888824
v 2.846023 5.249322 1.843214
v 2.871603 5.266585 1.861875
v 2.296897 5.078931 2.546082
v 2.303642 4.736936 2.534443
v 2.134784 4.732802 2.364174
v 2.155053 5.088467 2.402301
v 2.251124 5.121070 2.452152
v 2.255174 4.712550 2.413687
v 1.999640 5.428778 3.085721
v 1.683097 5.389012 2.840073
v 1.857667 5.398665 3.176483
v 1.868325 5.397959 2.708958
v 2.005131 5.400873 2.771662
v 1.683097 5.389012 3.122694
v 2.063360 5.365985 2.908801
v 1.634131 5.433579 2.969717
v 2.508110 5.874942 3.963980
v 2.488330 5.885340 3.964164
v 2.465903 5.875377 3.968844
v 2.516174 5.840862 3.981031
v 2.496510 5.838132 4.001347
v 2.468174 5.827350 3.999842
v 1.998865 5.659781 3.439447
v 1.949263 5.436255 3.481729
v 2.068185 5.446339 3.515622
v 2.098519 5.681356 3.446492
v 2.169468 5.623929 3.437597
v 2.163615 5.466031 3.451667
v 2.409976 6.679168 3.159592
v 2.943210 7.086517 3.547004
v 2.206303 7.086517 3.786444
v 1.750864 7.086520 3.159592
v 2.206303 7.086517 2.532740
v 2.943210 7.086517 2.772180
v 2.613649 7.745639 3.786444
v 1.876742 7.745639 3.547004
v 1.876742 7.745639 2.772180
v 2.613649 7.745639 2.532740
v 3.069088 7.745636 3.159592
v 2.409976 8.152988 3.159592
v 2.290261 6.789223 3.528044
v 2.723401 6.789223 3.387306
v 2.603687 7.028657 3.755761
v 3.036827 7.028658 3.159592
v 2.723401 6.789223 2.931878
v 2.022560 6.789224 3.159592
v 1.902842 7.028658 3.528045
v 2.290261 6.789223 2.791140
v 1.902842 7.028658 2.791139
v 2.603687 7.028657 2.563423
v 3.110820 7.416078 3.387306
v 3.110820 7.416078 2.931877
v 2.409976 7.416078 3.896502
v 2.843122 7.416078 3.755765
v 1.709132 7.416078 3.387306
v 1.976831 7.416078 3.755765
v 1.976831 7.416078 2.563419
v 1.709132 7.416078 2.931877
v 2.843122 7.416078 2.563419
v 2.409976 7.416078 2.422682
v 2.917110 7.803498 3.528045
v 2.216265 7.803499 3.755761
v 1.783125 7.803498 3.159592
v 2.216265 7.803499 2.563423
v 2.917110 7.803498 2.791139
v 2.529691 8.042933 3.528044
v 2.797392 8.042933 3.159592
v 2.096551 8.042933 3.387306
v 2.096551 8.042933 2.931878
v 2.529691 8.042933 2.791140
vn 0.0000 0.0000 1.0000
vn 0.0000 -1.0000 0.0000
vn 0.0000 1.0000 0.0000
vn 0.3826 0.0159 -0.9238
vn 0.9238 0.0159 -0.3826
vn 0.9238 0.0159 0.3826
vn 0.3826 0.0159 0.9238
vn -0.3826 0.0159 0.9238
vn -0.9238 0.0159 0.3826
vn -0.9238 0.0159 -0.3826
vn -0.3826 0.0159 -0.9238
vn 0.3826 -0.0159 0.9238
vn 0.9238 -0.0159 0.3826
vn 0.9238 -0.0159 -0.3826
vn 0.3826 -0.0159 -0.9238
vn -0.3826 -0.0159 -0.9238
vn -0.9238 -0.0159 -0.3826
vn -0.9238 -0.0159 0.3826
vn -0.3826 -0.0159 0.9238
vn -0.3827 0.0000 0.9239
vn 0.8250 -0.4502 0.3417
vn -0.9239 0.0000 0.3827
vn 0.3827 0.0000 0.9239
vn 0.6686 -0.6901 -0.2770
vn 0.8437 0.0156 -0.5366
vn 0.8916 0.0070 0.4528
vn -0.9239 0.0000 -0.3827
vn -0.9018 0.2042 -0.3808
vn 0.8656 -0.3276 0.3787
vn -0.2376 0.0196 -0.9712
vn 0.3513 -0.1739 0.9200
vn -0.3842 0.0474 0.9220
vn 0.2028 -0.1117 -0.9728
vn -0.9018 0.2042 0.3808
vn 0.8656 -0.3276 -0.3787
vn 0.8885 -0.2699 -0.3711
vn -0.9259 -0.0355 0.3760
vn 0.0454 0.7665 -0.6406
vn -0.4133 -0.1344 0.9006
vn 0.5021 -0.1209 0.8563
vn 0.7749 -0.2870 -0.5631
vn 0.8983 -0.1973 0.3925
vn -0.9309 0.0464 -0.3624
vn -0.8776 -0.3126 0.3635
vn -0.3635 -0.3126 -0.8776
vn 0.8776 -0.3126 -0.3635
vn 0.3635 -0.3126 0.8776
vn -0.3635 -0.3126 0.8776
vn -0.8776 -0.3126 -0.3635
vn 0.3635 -0.3126 -0.8776
vn 0.8776 -0.3126 0.3635
vn -0.9355 0.0271 -0.3522
vn 0.6223 0.6368 0.4551
vn -0.3884 -0.0241 -0.9212
vn 0.5741 -0.1282 0.8087
vn 0.6355 -0.1034 0.7651
vn 0.1226 0.0106 -0.9924
vn -0.7312 -0.0207 -0.6819
vn -0.4259 -0.8119 0.3993
vn 0.9191 -0.2075 0.3349
vn 0.9142 -0.2339 -0.3311
vn 0.0719 -0.0614 -0.9955
vn 0.0344 -0.0553 0.9979
vn 0.5969 0.5724 -0.5622
vn -0.4405 -0.8478 -0.2952
vn -0.1027 -0.9094 -0.4030
vn 0.1919 0.9079 -0.3726
vn -0.0103 -0.1735 0.9848
vn 0.1375 0.0397 -0.9897
vn -0.1876 -0.8455 0.5000
vn 0.1920 0.9375 0.2902
vn -0.3825 0.0270 0.9235
vn -0.9235 0.0270 -0.3825
vn 0.3866 0.0279 -0.9218
vn 0.9089 0.0349 0.4155
vn -0.9235 0.0270 0.3825
vn -0.3866 0.0279 -0.9218
vn 0.8932 0.0427 -0.4476
vn 0.3825 0.0270 0.9235
vn 0.4153 -0.1782 -0.8920
vn -0.2056 -0.9357 0.2867
vn -0.4002 0.7521 -0.5237
vn 0.7985 0.0000 -0.6019
vn -0.4343 -0.3554 -0.8277
vn -0.7985 0.0000 0.6019
vn -0.3827 -0.5526 -0.7404
vn 0.3827 -0.5525 -0.7404
vn -0.9941 -0.0225 -0.1059
vn 0.4002 0.7521 -0.5237
vn 0.2056 -0.9357 0.2867
vn 0.9941 -0.0225 -0.1059
vn 0.9971 -0.0371 -0.0663
vn 0.1922 -0.9673 0.1652
vn 0.3796 0.8888 -0.2568
vn -0.9916 0.0396 -0.1230
vn -0.3796 0.8888 -0.2568
vn -0.1996 -0.9687 0.1478
vn -0.3154 -0.4048 0.8583
vn -0.8273 -0.4427 0.3457
vn -0.1239 -0.9255 -0.3579
vn 0.3206 -0.9402 0.1151
vn -0.1163 0.8613 0.4947
vn -0.5204 0.8528 0.0445
vn -0.4858 0.8740 0.0147
vn -0.0074 0.8952 0.4456
vn 0.2796 -0.9593 0.0386
vn -0.1201 -0.9268 -0.3559
vn -0.8107 -0.0236 -0.5850
vn 0.6410 -0.0766 0.7637
vn -0.9380 0.0458 -0.3436
vn 0.8871 -0.1923 0.4197
vn -0.4657 0.0311 -0.8844
vn 0.6360 -0.1385 0.7591
vn -0.4070 -0.1352 0.9033
vn 0.1236 -0.1030 -0.9870
vn -0.9198 -0.0377 0.3907
vn 0.8948 -0.2697 -0.3558
vn 0.1781 -0.5598 -0.8092
vn -0.4662 -0.5536 -0.6901
vn 0.2426 -0.9527 0.1833
vn -0.4403 -0.6691 0.5988
vn -0.4074 0.8516 -0.3298
vn -0.8538 0.0737 0.5153
vn -0.9136 0.0741 0.3999
vn -0.2094 0.9778 -0.0066
vn -0.6141 -0.7690 0.1775
vn 0.2151 -0.9325 -0.2900
vn 0.7884 -0.2768 -0.5493
vn -0.0332 0.9931 -0.1123
vn 0.1024 -0.9435 0.3151
vn 0.7002 -0.6617 0.2680
vn -0.2680 -0.9435 0.1947
vn -0.2680 -0.9435 -0.1947
vn 0.1024 -0.9435 -0.3151
vn 0.9050 -0.3304 0.2680
vn 0.0247 -0.3304 0.9435
vn -0.8897 -0.3304 0.3151
vn -0.5746 -0.3304 -0.7488
vn 0.5346 -0.3304 -0.7779
vn 0.8026 -0.1256 0.5831
vn -0.3066 -0.1256 0.9435
vn -0.9921 -0.1256 0.0000
vn -0.3066 -0.1256 -0.9435
vn 0.8026 -0.1256 -0.5831
vn 0.4089 0.6617 0.6284
vn -0.4713 0.6617 0.5831
vn -0.7002 0.6617 -0.2680
vn 0.0385 0.6617 -0.7488
vn 0.7240 0.6617 -0.1947
vn 0.2680 0.9435 -0.1947
vn 0.4911 0.7947 -0.3568
vn 0.4089 0.6617 -0.6284
vn -0.1024 0.9435 -0.3151
vn -0.1876 0.7947 -0.5773
vn -0.4713 0.6617 -0.5831
vn -0.3313 0.9435 0.0000
vn -0.6071 0.7947 0.0000
vn -0.7002 0.6617 0.2680
vn -0.1024 0.9435 0.3151
vn -0.1876 0.7947 0.5773
vn 0.0385 0.6617 0.7488
vn 0.2680 0.9435 0.1947
vn 0.4911 0.7947 0.3568
vn 0.7240 0.6617 0.1947
vn 0.8897 0.3304 -0.3151
vn 0.7947 0.1876 -0.5773
vn 0.5746 0.3304 -0.7488
vn -0.0247 0.3304 -0.9435
vn -0.3035 0.1876 -0.9342
vn -0.5346 0.3304 -0.7779
vn -0.9050 0.3304 -0.2680
vn -0.9822 0.1876 0.0000
vn -0.9050 0.3304 0.2680
vn -0.5346 0.3304 0.7779
vn -0.3035 0.1876 0.9342
vn -0.0247 0.3304 0.9435
vn 0.5746 0.3304 0.7488
vn 0.7947 0.1876 0.5773
vn 0.8897 0.3304 0.3151
vn 0.3066 0.1256 -0.9435
vn 0.3035 -0.1876 -0.9342
vn 0.0247 -0.3304 -0.9435
vn -0.8026 0.1256 -0.5831
vn -0.7947 -0.1876 -0.5773
vn -0.8897 -0.3304 -0.3151
vn -0.8026 0.1256 0.5831
vn -0.7947 -0.1876 0.5773
vn -0.5746 -0.3304 0.7488
vn 0.3066 0.1256 0.9435
vn 0.3035 -0.1876 0.9342
vn 0.5346 -0.3304 0.7779
vn 0.9921 0.1256 0.0000
vn 0.9822 -0.1876 0.0000
vn 0.9050 -0.3304 -0.2680
vn 0.4713 -0.6617 -0.5831
vn 0.1876 -0.7947 -0.5773
vn -0.0385 -0.6617 -0.7488
vn -0.4089 -0.6617 -0.6284
vn -0.4911 -0.7947 -0.3568
vn -0.7240 -0.6617 -0.1947
vn -0.7240 -0.6617 0.1947
vn -0.4911 -0.7947 0.3568
vn -0.4089 -0.6617 0.6284
vn 0.7002 -0.6617 -0.2680
vn 0.6071 -0.7947 0.0000
vn 0.3313 -0.9435 0.0000
vn -0.0385 -0.6617 0.7488
vn 0.1876 -0.7947 0.5773
vn 0.4713 -0.6617 0.5831
usemtl Material.002
s off
f 33//1 34//1 4//1 2//1
f 34//1 35//1 6//1 4//1
f 35//1 36//1 8//1 6//1
f 36//1 37//1 10//1 8//1
f 37//1 38//1 12//1 10//1
f 38//1 39//1 14//1 12//1
f 4//2 6//2 8//2 10//2 12//2 14//2 16//2 2//2
f 39//1 40//1 16//1 14//1
f 40//1 33//1 2//1 16//1
f 1//3 15//3 13//3 11//3 9//3 7//3 5//3 3//3
f 73//4 18//4 20//4 74//4
f 74//5 20//5 22//5 75//5
f 75//6 22//6 24//6 76//6
f 76//7 24//7 26//7 77//7
f 77//8 26//8 28//8 78//8
f 78//9 28//9 30//9 79//9
f 20//3 18//3 32//3 30//3 28//3 26//3 24//3 22//3
f 79//10 30//10 32//10 80//10
f 80//11 32//11 18//11 73//11
f 17//2 19//2 21//2 23//2 25//2 27//2 29//2 31//2
f 15//12 1//12 33//12 40//12
f 13//13 15//13 40//13 39//13
f 11//14 13//14 39//14 38//14
f 9//15 11//15 38//15 37//15
f 7//16 9//16 37//16 36//16
f 5//17 7//17 36//17 35//17
f 3//18 5//18 35//18 34//18
f 1//19 3//19 34//19 33//19
f 50//20 49//20 42//20 41//20
f 52//1 51//1 44//1 43//1
f 54//20 53//20 46//20 45//20
f 56//21 55//21 48//21 47//21
f 49//22 52//22 43//22 42//22
f 51//23 54//23 45//23 44//23
f 53//24 56//24 47//24 46//24
f 55//1 50//1 41//1 48//1
f 116//23 109//23 50//23 55//23
f 115//25 112//25 56//25 53//25
f 54//1 51//1 117//1 119//1
f 113//22 110//22 52//22 49//22
f 112//26 116//26 55//26 56//26
f 114//1 111//1 120//1 121//1
f 110//27 114//27 51//27 52//27
f 109//20 113//20 49//20 50//20
f 66//28 65//28 59//28 60//28
f 68//29 67//29 63//29 64//29
f 65//30 69//30 62//30 59//30
f 67//31 70//31 58//31 63//31
f 70//32 71//32 57//32 58//32
f 69//33 72//33 61//33 62//33
f 71//34 66//34 60//34 57//34
f 72//35 68//35 64//35 61//35
f 164//36 166//36 68//36 72//36
f 163//37 165//37 66//37 71//37
f 175//38 174//38 172//38 171//38
f 162//39 163//39 71//39 70//39
f 160//40 162//40 70//40 67//40
f 174//41 173//41 169//41 172//41
f 166//42 160//42 67//42 68//42
f 165//43 159//43 65//43 66//43
f 31//1 80//1 73//1 17//1
f 29//1 79//1 80//1 31//1
f 27//1 78//1 79//1 29//1
f 25//1 77//1 78//1 27//1
f 23//1 76//1 77//1 25//1
f 21//1 75//1 76//1 23//1
f 19//1 74//1 75//1 21//1
f 17//1 73//1 74//1 19//1
f 75//44 74//44 82//44 83//44
f 77//45 76//45 84//45 85//45
f 79//46 78//46 86//46 87//46
f 73//47 80//47 88//47 81//47
f 74//48 73//48 81//48 82//48
f 76//49 75//49 83//49 84//49
f 78//50 77//50 85//50 86//50
f 80//51 79//51 87//51 88//51
f 52//52 51//52 91//52 89//52
f 106//53 105//53 98//53 99//53
f 51//54 54//54 93//54 91//54
f 55//55 50//55 94//55 92//55
f 156//56 155//56 148//56 151//56
f 54//57 53//57 96//57 93//57
f 154//58 153//58 150//58 149//58
f 104//59 103//59 100//59 101//59
f 99//60 98//60 101//60 100//60
f 97//61 99//61 100//61 102//61
f 108//62 107//62 97//62 102//62
f 105//63 104//63 101//63 98//63
f 107//64 106//64 99//64 97//64
f 103//65 108//65 102//65 100//65
f 90//66 96//66 108//66 103//66
f 53//67 56//67 106//67 107//67
f 55//68 92//68 104//68 105//68
f 96//69 53//69 107//69 108//69
f 92//70 90//70 103//70 104//70
f 56//71 55//71 105//71 106//71
f 33//72 34//72 113//72 109//72
f 35//73 36//73 114//73 110//73
f 37//74 38//74 115//74 111//74
f 39//75 40//75 116//75 112//75
f 34//76 35//76 110//76 113//76
f 36//77 37//77 111//77 114//77
f 38//78 39//78 112//78 115//78
f 40//79 33//79 109//79 116//79
f 119//1 117//1 123//1 125//1
f 121//1 120//1 126//1 127//1
f 115//1 53//1 118//1 122//1
f 51//1 114//1 121//1 117//1
f 53//1 54//1 119//1 118//1
f 111//1 115//1 122//1 120//1
f 124//80 125//80 131//80 130//80
f 126//1 128//1 134//1 132//1
f 117//1 121//1 127//1 123//1
f 120//1 122//1 128//1 126//1
f 118//1 119//1 125//1 124//1
f 122//1 118//1 124//1 128//1
f 144//81 143//81 135//81 137//81
f 142//82 141//82 138//82 139//82
f 128//83 124//83 130//83 134//83
f 127//1 126//1 132//1 133//1
f 125//84 123//84 129//84 131//84
f 123//85 127//85 133//85 129//85
f 139//86 138//86 137//86 135//86
f 138//87 140//87 136//87 137//87
f 143//88 142//88 139//88 135//88
f 141//89 145//89 140//89 138//89
f 146//90 144//90 137//90 136//90
f 145//91 146//91 136//91 140//91
f 134//92 130//92 146//92 145//92
f 130//93 131//93 144//93 146//93
f 132//94 134//94 145//94 141//94
f 129//95 133//95 142//95 143//95
f 133//96 132//96 141//96 142//96
f 131//97 129//97 143//97 144//97
f 148//98 147//98 152//98 151//98
f 147//99 149//99 150//99 152//99
f 153//100 157//100 152//100 150//100
f 157//101 156//101 151//101 152//101
f 155//102 158//102 147//102 148//102
f 158//103 154//103 149//103 147//103
f 49//104 52//104 154//104 158//104
f 50//105 49//105 158//105 155//105
f 95//106 94//106 156//106 157//106
f 89//107 95//107 157//107 153//107
f 52//108 89//108 153//108 154//108
f 94//109 50//109 155//109 156//109
f 89//110 91//110 159//110 165//110
f 90//111 92//111 160//111 166//111
f 91//112 93//112 161//112 159//112
f 92//113 94//113 162//113 160//113
f 94//114 95//114 163//114 162//114
f 93//115 96//115 164//115 161//115
f 95//116 89//116 165//116 163//116
f 96//117 90//117 166//117 164//117
f 171//118 172//118 169//118 168//118
f 170//119 171//119 168//119 167//119
f 173//120 176//120 168//120 169//120
f 176//121 177//121 167//121 168//121
f 178//122 175//122 171//122 170//122
f 177//123 178//123 170//123 167//123
f 65//124 159//124 178//124 177//124
f 159//125 161//125 175//125 178//125
f 69//126 65//126 177//126 176//126
f 72//127 69//127 176//127 173//127
f 164//128 72//128 173//128 174//128
f 161//129 164//129 174//129 175//129
usemtl cylinder
f 179//130 192//130 191//130
f 180//131 192//131 194//131
f 179//132 191//132 196//132
f 179//133 196//133 198//133
f 179//134 198//134 195//134
f 180//135 194//135 201//135
f 181//136 193//136 203//136
f 182//137 197//137 205//137
f 183//138 199//138 207//138
f 184//139 200//139 209//139
f 180//140 201//140 204//140
f 181//141 203//141 206//141
f 182//142 205//142 208//142
f 183//143 207//143 210//143
f 184//144 209//144 202//144
f 185//145 211//145 216//145
f 186//146 212//146 218//146
f 187//147 213//147 219//147
f 188//148 214//148 220//148
f 189//149 215//149 217//149
f 217//150 220//150 190//150
f 217//151 215//151 220//151
f 215//152 188//152 220//152
f 220//153 219//153 190//153
f 220//154 214//154 219//154
f 214//155 187//155 219//155
f 219//156 218//156 190//156
f 219//157 213//157 218//157
f 213//158 186//158 218//158
f 218//159 216//159 190//159
f 218//160 212//160 216//160
f 212//161 185//161 216//161
f 216//162 217//162 190//162
f 216//163 211//163 217//163
f 211//164 189//164 217//164
f 202//165 215//165 189//165
f 202//166 209//166 215//166
f 209//167 188//167 215//167
f 210//168 214//168 188//168
f 210//169 207//169 214//169
f 207//170 187//170 214//170
f 208//171 213//171 187//171
f 208//172 205//172 213//172
f 205//173 186//173 213//173
f 206//174 212//174 186//174
f 206//175 203//175 212//175
f 203//176 185//176 212//176
f 204//177 211//177 185//177
f 204//178 201//178 211//178
f 201//179 189//179 211//179
f 209//180 210//180 188//180
f 209//181 200//181 210//181
f 200//182 183//182 210//182
f 207//183 208//183 187//183
f 207//184 199//184 208//184
f 199//185 182//185 208//185
f 205//186 206//186 186//186
f 205//187 197//187 206//187
f 197//188 181//188 206//188
f 203//189 204//189 185//189
f 203//190 193//190 204//190
f 193//191 180//191 204//191
f 201//192 202//192 189//192
f 201//193 194//193 202//193
f 194//194 184//194 202//194
f 195//195 200//195 184//195
f 195//196 198//196 200//196
f 198//197 183//197 200//197
f 198//198 199//198 183//198
f 198//199 196//199 199//199
f 196//200 182//200 199//200
f 196//201 197//201 182//201
f 196//202 191//202 197//202
f 191//203 181//203 197//203
f 194//204 195//204 184//204
f 194//205 192//205 195//205
f 192//206 179//206 195//206
f 191//207 193//207 181//207
f 191//208 192//208 193//208
f 192//209 180//209 193//209
